<svg width="169" height="197" viewBox="0 0 169 197" fill="none" xmlns="http://www.w3.org/2000/svg">
<g clip-path="url(#clip0_29_1524)">
<path d="M163.546 72.5633H5.55232C4.14457 72.5617 2.79493 72.0016 1.7995 71.006C0.804064 70.0103 0.244118 68.6604 0.242493 67.2524V5.31092C0.244118 3.90288 0.804064 2.55296 1.7995 1.55733C2.79493 0.561687 4.14457 0.00162584 5.55232 0H163.546C164.953 0.00162584 166.303 0.561687 167.298 1.55733C168.294 2.55296 168.854 3.90288 168.855 5.31092V67.2524C168.854 68.6604 168.294 70.0103 167.298 71.006C166.303 72.0016 164.953 72.5617 163.546 72.5633Z" fill="#F2F2F2"/>
<path d="M126.698 69.1761H30.6313C23.4726 69.168 16.6094 66.32 11.5473 61.257C6.48534 56.1939 3.63796 49.3293 3.62988 42.1691V30.3972C3.63795 23.2369 6.48532 16.3722 11.5473 11.3092C16.6093 6.24608 23.4726 3.39808 30.6313 3.38995H138.467C145.626 3.39808 152.489 6.24608 157.551 11.3092C162.613 16.3722 165.461 23.2369 165.469 30.3972C165.457 40.6784 161.369 50.5352 154.1 57.8052C146.832 65.0751 136.977 69.1644 126.698 69.1761Z" fill="white"/>
<path d="M101.917 21.1218H38.4155C38.0523 21.1218 37.704 20.9775 37.4472 20.7206C37.1904 20.4637 37.0461 20.1153 37.0461 19.7521C37.0461 19.3888 37.1904 19.0404 37.4472 18.7836C37.704 18.5267 38.0523 18.3824 38.4155 18.3824H101.917C102.28 18.3824 102.628 18.5267 102.885 18.7836C103.142 19.0404 103.286 19.3888 103.286 19.7521C103.286 20.1153 103.142 20.4637 102.885 20.7206C102.628 20.9775 102.28 21.1218 101.917 21.1218Z" fill="#E6E6E6"/>
<path d="M134.062 35.7354H38.4155C38.0523 35.7354 37.704 35.5911 37.4472 35.3342C37.1904 35.0774 37.0461 34.729 37.0461 34.3657C37.0461 34.0025 37.1904 33.6541 37.4472 33.3972C37.704 33.1403 38.0523 32.996 38.4155 32.996H134.062C134.425 32.996 134.774 33.1403 135.03 33.3972C135.287 33.6541 135.432 34.0025 135.432 34.3657C135.432 34.729 135.287 35.0774 135.03 35.3342C134.774 35.5911 134.425 35.7354 134.062 35.7354Z" fill="#E6E6E6"/>
<path d="M134.062 50.3491H38.4155C38.0523 50.3491 37.704 50.2048 37.4472 49.9479C37.1904 49.6911 37.0461 49.3427 37.0461 48.9794C37.0461 48.6162 37.1904 48.2678 37.4472 48.0109C37.704 47.754 38.0523 47.6097 38.4155 47.6097H134.062C134.425 47.6097 134.774 47.754 135.03 48.0109C135.287 48.2678 135.432 48.6162 135.432 48.9794C135.432 49.3427 135.287 49.6911 135.03 49.9479C134.774 50.2048 134.425 50.3491 134.062 50.3491Z" fill="#E6E6E6"/>
<path d="M134.062 50.3491H38.4155C38.0523 50.3491 37.704 50.2048 37.4472 49.9479C37.1904 49.6911 37.0461 49.3427 37.0461 48.9794C37.0461 48.6162 37.1904 48.2678 37.4472 48.0109C37.704 47.754 38.0523 47.6097 38.4155 47.6097H134.062C134.425 47.6097 134.774 47.754 135.03 48.0109C135.287 48.2678 135.432 48.6162 135.432 48.9794C135.432 49.3427 135.287 49.6911 135.03 49.9479C134.774 50.2048 134.425 50.3491 134.062 50.3491Z" fill="#E6E6E6"/>
<path d="M95.2156 37.4127C95.2309 37.8253 95.3364 38.2295 95.5247 38.5969C95.713 38.9643 95.9795 39.2859 96.3055 39.5391C96.6316 39.7923 97.0091 39.971 97.4116 40.0624C97.8142 40.1539 98.2318 40.156 98.6352 40.0685L103.858 48.6377L106.08 43.9202L100.78 36.506C100.588 35.8379 100.158 35.2634 99.5713 34.8913C98.9843 34.5193 98.2812 34.3755 97.5953 34.4873C96.9094 34.599 96.2883 34.9586 95.8497 35.4977C95.4112 36.0369 95.1855 36.7183 95.2156 37.4127Z" fill="#FFB6B6"/>
<path d="M134.406 61.9713L116.409 52.2072L110.732 46.8801C110.732 46.8801 108.264 46.2193 109.173 45.4167C110.081 44.6141 107.493 43.84 107.493 43.84L104.445 40.9803L100.115 44.0449L101.368 45.988C101.368 45.988 101.282 49.2047 103.044 48.5859C104.805 47.967 104.365 50.6348 104.365 50.6348L114.881 66.9391L134.406 61.9713Z" fill="#3F3D56"/>
<path d="M81.2801 52.772C90.9888 52.772 98.8592 44.8999 98.8592 35.1893C98.8592 25.4786 90.9888 17.6066 81.2801 17.6066C71.5715 17.6066 63.701 25.4786 63.701 35.1893C63.701 44.8999 71.5715 52.772 81.2801 52.772Z" fill="#7C51E6"/>
<path d="M134.462 190.04H130.807L129.067 175.939H134.462V190.04Z" fill="#FFB6B6"/>
<path d="M136.391 196.374H133.77L133.302 193.899L132.104 196.374H125.152C124.818 196.374 124.494 196.268 124.225 196.07C123.957 195.873 123.759 195.595 123.66 195.276C123.56 194.958 123.566 194.617 123.674 194.302C123.783 193.986 123.989 193.714 124.264 193.525L129.815 189.69V187.187L135.655 187.536L136.391 196.374Z" fill="#2F2E41"/>
<path d="M105.228 190.04H101.573L99.8335 175.939H105.228V190.04Z" fill="#FFB6B6"/>
<path d="M107.157 196.374H104.536L104.068 193.899L102.87 196.374H95.9177C95.5845 196.374 95.26 196.268 94.9915 196.07C94.7231 195.873 94.5248 195.595 94.4257 195.276C94.3265 194.958 94.3316 194.617 94.4403 194.302C94.549 193.986 94.7555 193.714 95.0297 193.525L100.582 189.69V187.187L106.421 187.536L107.157 196.374Z" fill="#2F2E41"/>
<path d="M130.584 83.3929H112.135V104.4H130.584V83.3929Z" fill="#FFB6B6"/>
<path d="M112.561 93.7546L109.439 97.4451L104.046 108.8L90.4579 141.137L87.5842 147.976L89.9049 160.066C89.9049 160.066 90.2806 168.583 90.2806 169.977C90.2806 172.816 92.6544 174.389 92.6544 174.389L94.396 183.462L111.284 182.752C111.284 182.752 110.694 172.751 107.157 170.229C103.62 167.706 101.994 154.559 101.994 154.559L100.072 148.726L118.805 126.516L118.926 134.28L118.984 138.038C118.984 138.038 116.241 162.478 119.439 167.221C122.637 171.964 119.504 171.406 119.504 171.406L119.656 181.191L139.666 181.332L135.252 153.163C135.252 153.163 133.01 151.393 134.209 149.614C135.409 147.834 133.047 145.655 133.047 145.655L134.106 123.664C134.106 123.664 132.933 119.866 134.313 119.372C135.692 118.878 134.494 115.612 134.494 115.612L134.699 111.355L130.584 98.1548L112.561 93.7546Z" fill="#2F2E41"/>
<path d="M130.868 83.3929L132.854 77.4313L134.273 75.4441L134.841 69.7665C134.841 54.4368 131.422 56.9895 131.422 56.9895L129.448 51.598L120.366 51.3141L114.548 56.8498L109.723 58.5531L107.833 68.3727L111.284 78.8507L112.135 84.5284C110.511 87.5275 110.648 86.109 111.993 88.3608L128.029 92.761C133.706 94.7482 133.706 89.6383 132.567 88.3608C131.429 87.0833 130.868 83.3929 130.868 83.3929Z" fill="#3F3D56"/>
<path d="M123.734 49.4085C128.384 49.4085 132.154 45.6381 132.154 40.987C132.154 36.336 128.384 32.5656 123.734 32.5656C119.084 32.5656 115.314 36.336 115.314 40.987C115.314 45.6381 119.084 49.4085 123.734 49.4085Z" fill="#FFB6B6"/>
<path d="M134.974 52.2282C135.054 52.3621 135.102 52.5122 135.115 52.6672C135.128 52.8223 135.107 52.9783 135.051 53.1237C134.996 53.2692 134.908 53.4002 134.795 53.5072C134.682 53.6141 134.546 53.6941 134.398 53.7413C133.269 54.116 132.573 55.209 131.762 56.0833C130.953 56.9549 129.65 57.6788 128.617 57.0854C127.586 56.495 127.516 54.9876 126.653 54.17C125.813 53.3751 124.416 53.4716 123.428 54.0763L123.399 54.0945C123.228 54.2056 123.029 54.2644 122.826 54.2635C122.622 54.2625 122.423 54.202 122.254 54.0893C122.084 53.9765 121.952 53.8166 121.872 53.6292C121.792 53.4419 121.77 53.2353 121.806 53.035C122.152 51.1941 122.498 49.3534 122.844 47.5129C121.935 49.7018 120.616 51.6965 118.958 53.3893C118.501 53.9165 117.923 54.3239 117.272 54.5759C116.682 54.7633 116.109 54.1529 115.535 54.2636C116.96 53.0174 121.751 45.0289 120.894 39.6891C119.886 39.8026 118.879 39.9162 117.871 40.0298C117.762 39.5528 117.529 39.1131 117.196 38.7551C117.236 39.2193 117.177 39.6868 117.022 40.1263C116.602 40.1745 116.18 40.22 115.759 40.2682C115.175 40.3335 114.539 40.3903 114.037 40.0837C113.199 39.5727 113.174 38.3634 113.412 37.4095C114.11 34.636 116.228 32.3167 118.819 31.1016C121.41 29.8895 122.177 32.5892 124.907 31.7262C130.3 30.0229 134.432 32.9355 135.888 38.3407C137.112 42.8743 136.223 47.6861 134.974 52.2282Z" fill="#2F2E41"/>
<path d="M158.284 196.558H147.974L147.93 196.477C147.798 196.238 147.671 195.985 147.552 195.724C146.49 193.45 146.041 190.849 145.645 188.555L145.347 186.825C145.311 186.616 145.338 186.4 145.425 186.206C145.512 186.012 145.655 185.849 145.835 185.737C146.016 185.624 146.226 185.569 146.438 185.577C146.651 185.584 146.856 185.655 147.028 185.78C148.594 186.921 150.162 188.06 151.73 189.198C152.324 189.63 153.002 190.13 153.651 190.671C153.714 190.366 153.779 190.061 153.845 189.76C153.89 189.552 153.996 189.363 154.15 189.216C154.303 189.068 154.497 188.97 154.707 188.934C154.916 188.898 155.132 188.925 155.326 189.012C155.52 189.099 155.684 189.242 155.796 189.423L157.002 191.361C157.882 192.777 158.658 194.172 158.5 195.676C158.501 195.694 158.5 195.713 158.496 195.731C158.464 195.978 158.406 196.221 158.321 196.455L158.284 196.558Z" fill="#F0F0F0"/>
<path d="M168.632 196.781L70.6625 196.876C70.5647 196.876 70.4711 196.836 70.4021 196.767C70.3331 196.698 70.2944 196.604 70.2944 196.506C70.2944 196.408 70.3331 196.314 70.4021 196.245C70.4711 196.176 70.5647 196.137 70.6625 196.136L168.632 196.041C168.73 196.041 168.823 196.08 168.892 196.15C168.961 196.219 169 196.313 169 196.411C169 196.508 168.961 196.602 168.892 196.672C168.823 196.741 168.73 196.78 168.632 196.781Z" fill="#CACACA"/>
<path d="M79.6821 58.8543L68.9059 49.752C68.5375 49.4402 68.3079 48.9949 68.2674 48.514C68.2268 48.033 68.3787 47.5556 68.6896 47.1865L70.673 44.8374C70.9848 44.4689 71.43 44.2393 71.9108 44.1987C72.3917 44.1582 72.869 44.3101 73.238 44.6211L84.0143 53.7234C84.3826 54.0352 84.6122 54.4805 84.6528 54.9614C84.6933 55.4424 84.5414 55.9198 84.2305 56.2889L82.2471 58.638C81.9353 59.0065 81.4902 59.2361 81.0093 59.2767C80.5285 59.3172 80.0512 59.1653 79.6821 58.8543Z" fill="#3F3D56"/>
<path d="M69.4714 47.3758C69.3038 47.5747 69.222 47.832 69.2438 48.0912C69.2657 48.3504 69.3894 48.5903 69.5879 48.7584L80.3641 57.8607C80.563 58.0283 80.8202 58.1101 81.0793 58.0883C81.3385 58.0664 81.5784 57.9427 81.7464 57.7441L83.7298 55.395C83.8973 55.1961 83.9791 54.9389 83.9573 54.6797C83.9354 54.4205 83.8117 54.1806 83.6132 54.0125L72.837 44.9102C72.6381 44.7426 72.3809 44.6608 72.1218 44.6826C71.8627 44.7045 71.6228 44.8282 71.4548 45.0267L69.4714 47.3758Z" fill="white"/>
<path d="M75.7977 50.9143C75.7603 50.9666 75.7113 51.0095 75.6544 51.0396C75.5975 51.0697 75.5345 51.0861 75.4702 51.0876L73.777 51.1265C73.7226 51.1277 73.6685 51.1182 73.6177 51.0986C73.567 51.0789 73.5206 51.0494 73.4813 51.0118C73.442 50.9743 73.4104 50.9293 73.3884 50.8795C73.3665 50.8297 73.3545 50.7761 73.3533 50.7217C73.352 50.6673 73.3615 50.6132 73.3812 50.5624C73.4008 50.5117 73.4303 50.4653 73.4679 50.426C73.5054 50.3866 73.5504 50.355 73.6002 50.3331C73.65 50.3111 73.7036 50.2991 73.758 50.2979L74.8656 50.2724L73.7748 47.3934C73.7362 47.2907 73.7398 47.1769 73.785 47.0769C73.8302 46.9769 73.9132 46.8989 74.0157 46.86C74.1183 46.8211 74.2322 46.8245 74.3323 46.8694C74.4324 46.9143 74.5105 46.9972 74.5497 47.0997L75.8481 50.5264C75.8716 50.5884 75.8799 50.6551 75.8722 50.721C75.8646 50.7868 75.8413 50.8499 75.8043 50.9048L75.7977 50.9143Z" fill="#7C51E6"/>
<path d="M76.0149 51.6378C76.4233 51.6978 76.8135 51.8467 77.1582 52.0738C77.5029 52.301 77.7935 52.601 78.0097 52.9527C78.2259 53.3044 78.3624 53.6992 78.4095 54.1094C78.4567 54.5195 78.4133 54.935 78.2826 55.3266L86.2313 61.4508L81.3011 63.1478L74.5087 57.072C73.8655 56.8086 73.3413 56.3185 73.0354 55.6944C72.7294 55.0703 72.6629 54.3556 72.8486 53.6858C73.0343 53.016 73.4591 52.4375 74.0427 52.0601C74.6262 51.6826 75.328 51.5324 76.0149 51.6378Z" fill="#FFB6B6"/>
<path d="M117.398 54.666L97.0463 67.1813C97.0463 67.1813 88.8409 64.1447 90.4445 62.7389C92.0481 61.3331 86.9432 60.3828 86.9432 60.3828L81.3036 56.5879L78.0311 60.3919C78.0311 60.3919 78.6274 66.5707 79.642 65.5008C80.6565 64.431 82.173 67.3536 82.173 67.3536C82.173 67.3536 82.6212 70.617 85.5093 69.7957C88.3974 68.9745 96.147 77.5827 96.147 77.5827L121.193 68.2394L117.398 54.666Z" fill="#3F3D56"/>
<path d="M80.6619 42.2424C80.426 42.2424 80.1933 42.1874 79.9823 42.0819C79.7713 41.9763 79.5878 41.8231 79.4462 41.6342L75.7189 36.6634C75.5992 36.5037 75.5121 36.322 75.4626 36.1286C75.413 35.9353 75.4021 35.734 75.4303 35.5364C75.4585 35.3388 75.5254 35.1487 75.6271 34.977C75.7288 34.8052 75.8633 34.6552 76.023 34.5354C76.3454 34.2935 76.7507 34.1897 77.1497 34.2467C77.3473 34.2749 77.5373 34.3418 77.7091 34.4435C77.8808 34.5452 78.0308 34.6798 78.1505 34.8395L80.5891 38.0912L86.8521 28.6949C87.0757 28.3595 87.4233 28.1266 87.8186 28.0475C88.2138 27.9685 88.6243 28.0497 88.9596 28.2733C89.295 28.4969 89.5278 28.8447 89.6069 29.24C89.6859 29.6353 89.6047 30.0458 89.3812 30.3813L81.9266 41.5655C81.7917 41.7677 81.6104 41.9347 81.3977 42.0524C81.185 42.1701 80.9472 42.2351 80.7042 42.2419C80.6901 42.2422 80.676 42.2424 80.6619 42.2424Z" fill="white"/>
</g>
<defs>
<clipPath id="clip0_29_1524">
<rect width="169" height="197" fill="white"/>
</clipPath>
</defs>
</svg>
