<svg width="224" height="64" viewBox="0 0 224 64" fill="none" xmlns="http://www.w3.org/2000/svg">
<path d="M108.109 63.5C104.995 63.5 102.204 62.9892 99.7371 61.9677C97.27 60.9461 95.2882 59.4342 93.7917 57.4319C93.4436 56.9531 93.1347 56.4509 92.8652 55.9254C91.3832 53.0359 94.1481 50.1992 97.3692 50.1992H98.4434C100.764 50.1992 102.452 52.2963 104.166 53.8768C105.096 54.6941 106.309 55.1027 107.806 55.1027C109.343 55.1027 110.556 54.7554 111.446 54.0607C112.335 53.3252 112.78 52.3241 112.78 51.0573C112.78 49.9949 112.416 49.1163 111.688 48.4217C111.001 47.727 110.131 47.1549 109.08 46.7054C108.069 46.256 106.613 45.7452 104.712 45.1731C101.962 44.315 99.7168 43.4569 97.9777 42.5987C96.2386 41.7406 94.7422 40.4739 93.4884 38.7985C92.2346 37.1232 91.6077 34.937 91.6077 32.2401C91.6077 28.2355 93.0435 25.1095 95.9151 22.8621C98.7866 20.5738 102.528 19.4296 107.138 19.4296C111.83 19.4296 115.611 20.5738 118.483 22.8621C119.813 23.9028 120.856 25.1364 121.614 26.5627C123.135 29.4286 120.395 32.3014 117.176 32.3014H115.534C113.477 32.3014 111.94 30.3766 110.354 29.0528C109.423 28.2355 108.23 27.8269 106.774 27.8269C105.521 27.8269 104.509 28.1742 103.741 28.8689C102.973 29.5227 102.588 30.483 102.588 31.7497C102.588 33.139 103.235 34.2219 104.53 34.9983C105.824 35.7747 107.846 36.6124 110.596 37.5113C113.347 38.4512 115.571 39.3502 117.27 40.2083C119.009 41.0664 120.505 42.3127 121.759 43.9472C123.013 45.5817 123.64 47.6861 123.64 50.2605C123.64 52.7123 123.013 54.9393 121.759 56.9415C120.546 58.9438 118.766 60.5375 116.42 61.7225C114.075 62.9075 111.304 63.5 108.109 63.5Z" fill="white"/>
<path d="M145.433 63.5C142.319 63.5 139.528 62.9892 137.061 61.9677C134.594 60.9461 132.612 59.4342 131.116 57.4319C130.768 56.9531 130.459 56.4509 130.189 55.9254C128.707 53.0359 131.472 50.1992 134.693 50.1992H135.768C138.088 50.1992 139.776 52.2963 141.49 53.8768C142.42 54.6941 143.633 55.1027 145.13 55.1027C146.667 55.1027 147.88 54.7554 148.77 54.0607C149.66 53.3252 150.104 52.3241 150.104 51.0573C150.104 49.9949 149.74 49.1163 149.012 48.4217C148.325 47.727 147.455 47.1549 146.404 46.7054C145.393 46.256 143.937 45.7452 142.036 45.1731C139.286 44.315 137.041 43.4569 135.302 42.5987C133.563 41.7406 132.066 40.4739 130.813 38.7985C129.559 37.1232 128.932 34.937 128.932 32.2401C128.932 28.2355 130.368 25.1095 133.239 22.8621C136.111 20.5738 139.852 19.4296 144.462 19.4296C149.154 19.4296 152.936 20.5738 155.807 22.8621C157.137 23.9028 158.18 25.1364 158.938 26.5627C160.459 29.4286 157.719 32.3014 154.5 32.3014H152.858C150.801 32.3014 149.264 30.3766 147.678 29.0528C146.748 28.2355 145.554 27.8269 144.098 27.8269C142.845 27.8269 141.834 28.1742 141.065 28.8689C140.297 29.5227 139.912 30.483 139.912 31.7497C139.912 33.139 140.56 34.2219 141.854 34.9983C143.148 35.7747 145.17 36.6124 147.92 37.5113C150.671 38.4512 152.895 39.3502 154.594 40.2083C156.333 41.0664 157.829 42.3127 159.083 43.9472C160.337 45.5817 160.964 47.6861 160.964 50.2605C160.964 52.7123 160.337 54.9393 159.083 56.9415C157.87 58.9438 156.09 60.5375 153.744 61.7225C151.399 62.9075 148.628 63.5 145.433 63.5Z" fill="white"/>
<path d="M208.469 63.5C205.355 63.5 202.565 62.9892 200.097 61.9677C197.63 60.9461 195.649 59.4342 194.152 57.4319C193.804 56.9531 193.495 56.4509 193.226 55.9254C191.744 53.0359 194.509 50.1992 197.73 50.1992H198.804C201.124 50.1992 202.813 52.2963 204.526 53.8768C205.456 54.6941 206.67 55.1027 208.166 55.1027C209.703 55.1027 210.916 54.7554 211.806 54.0607C212.696 53.3252 213.141 52.3241 213.141 51.0573C213.141 49.9949 212.777 49.1163 212.049 48.4217C211.361 47.727 210.492 47.1549 209.44 46.7054C208.429 46.256 206.973 45.7452 205.072 45.1731C202.322 44.315 200.077 43.4569 198.338 42.5987C196.599 41.7406 195.103 40.4739 193.849 38.7985C192.595 37.1232 191.968 34.937 191.968 32.2401C191.968 28.2355 193.404 25.1095 196.275 22.8621C199.147 20.5738 202.888 19.4296 207.499 19.4296C212.19 19.4296 215.972 20.5738 218.843 22.8621C220.173 23.9028 221.217 25.1364 221.974 26.5627C223.496 29.4286 220.755 32.3014 217.536 32.3014H215.894C213.837 32.3014 212.3 30.3766 210.714 29.0528C209.784 28.2355 208.591 27.8269 207.135 27.8269C205.881 27.8269 204.87 28.1742 204.101 28.8689C203.333 29.5227 202.949 30.483 202.949 31.7497C202.949 33.139 203.596 34.2219 204.89 34.9983C206.184 35.7747 208.206 36.6124 210.957 37.5113C213.707 38.4512 215.931 39.3502 217.63 40.2083C219.369 41.0664 220.866 42.3127 222.119 43.9472C223.373 45.5817 224 47.6861 224 50.2605C224 52.7123 223.373 54.9393 222.119 56.9415C220.906 58.9438 219.126 60.5375 216.781 61.7225C214.435 62.9075 211.664 63.5 208.469 63.5Z" fill="white"/>
<path fill-rule="evenodd" clip-rule="evenodd" d="M176.838 6.88479C173.697 6.88479 171.15 9.4575 171.15 12.6311C171.15 15.8047 173.697 18.3774 176.838 18.3774C179.979 18.3774 182.525 15.8047 182.525 12.6311C182.525 9.4575 179.979 6.88479 176.838 6.88479ZM176.838 24.7622C183.469 24.7622 188.845 19.3309 188.845 12.6311C188.845 5.93128 183.469 0.5 176.838 0.5C170.206 0.5 164.831 5.93128 164.831 12.6311C164.831 19.3309 170.206 24.7622 176.838 24.7622Z" fill="white"/>
<path d="M171.15 33.0624C171.15 29.8888 173.697 27.3161 176.838 27.3161C179.979 27.3161 182.525 29.8888 182.525 33.0624V57.3246C182.525 60.4982 179.979 63.0709 176.838 63.0709C173.697 63.0709 171.15 60.4982 171.15 57.3246V33.0624Z" fill="white"/>
<path d="M0 41.4954C0 37.2457 0.909997 33.4659 2.72999 30.1561C4.54999 26.8053 7.07775 24.2105 10.3133 22.3717C13.5893 20.492 17.2899 19.5522 21.4153 19.5522C26.4708 19.5522 30.7983 20.9007 34.3979 23.5976C35.9535 24.7631 37.2863 26.1118 38.3962 27.6437C40.6873 30.8057 37.8221 34.6305 33.9434 34.6305C31.6636 34.6305 29.7132 33.1535 28.0257 31.6047C27.5814 31.1969 27.0968 30.8366 26.5719 30.5238C25.035 29.584 23.2757 29.1141 21.2939 29.1141C18.0988 29.1141 15.5104 30.2378 13.5286 32.4852C11.5469 34.7327 10.556 37.7361 10.556 41.4954C10.556 45.2548 11.5469 48.2582 13.5286 50.5057C15.5104 52.7531 18.0988 53.8768 21.2939 53.8768C23.2757 53.8768 25.035 53.4069 26.5719 52.4671C27.0968 52.1543 27.5814 51.794 28.0257 51.3862C29.7132 49.8373 31.6636 48.3604 33.9434 48.3604C37.8221 48.3604 40.6873 52.1851 38.3962 55.3472C37.2863 56.8791 35.9535 58.2278 34.3979 59.3933C30.7983 62.0494 26.4708 63.3774 21.4153 63.3774C17.2899 63.3774 13.5893 62.458 10.3133 60.6192C7.07775 58.7395 4.54999 56.1447 2.72999 52.8348C0.909997 49.525 0 45.7452 0 41.4954Z" fill="white"/>
<path d="M75.7553 59.2707C74.9938 56.9991 72.8839 55.4705 70.5101 55.4705H62.5579C60.1841 55.4705 58.0743 56.9991 57.3127 59.2707L57.2048 59.5926C56.5078 61.6718 54.5766 63.0709 52.4039 63.0709C48.8897 63.0709 46.4418 59.5459 47.6374 56.2072L58.5452 25.7486C59.7717 22.324 62.9901 20.0425 66.5947 20.0425C70.1993 20.0425 73.4177 22.324 74.6441 25.7486L85.5244 56.1305C86.7335 59.5065 84.2582 63.0709 80.7048 63.0709C78.5077 63.0709 76.555 61.6562 75.8502 59.5537L75.7553 59.2707ZM69.8888 49.0244C71.1976 49.0244 72.1143 47.7185 71.6816 46.4705L67.2532 33.7009C67.0075 32.9925 66.0211 32.9779 65.755 33.6787L65.7466 33.7009L60.8981 46.4705C60.4305 47.7019 61.3303 49.0244 62.6358 49.0244H69.8888Z" fill="white"/>
</svg>
